<?xml version="1.0" encoding="utf-8"?>
<!-- Generator: Adobe Illustrator 25.4.1, SVG Export Plug-In . SVG Version: 6.00 Build 0)  -->
<svg version="1.1" id="Ebene_1" xmlns="http://www.w3.org/2000/svg" xmlns:xlink="http://www.w3.org/1999/xlink" x="0px" y="0px"
	 viewBox="0 0 100 100" style="enable-background:new 0 0 100 100;" xml:space="preserve">
<style type="text/css">
	.st0{fill:#8A7B1B;}
</style>
<path class="st0" d="M48.9,42.6l-5.6-0.1c-2,0-3.7,0.4-5,1.2c-1.3,0.8-2.3,1.9-3,3.3v24.6l6.6,1.4v8.2H15.2V73l6.6-1.4V40.1
	l-7.3-1.4v-8.2h20l0.6,7.4c1.2-2.6,2.7-4.7,4.6-6.1c1.9-1.5,4-2.2,6.5-2.2c0.7,0,1.5,0.1,2.3,0.2c0.8,0.1,1.5,0.2,2,0.4L48.9,42.6z"
	/>
<polygon class="st0" points="60.6,87 50.4,87 75.4,13 85.5,13 "/>
</svg>
