<?xml version="1.0" encoding="utf-8"?>
<!-- Generator: Adobe Illustrator 25.4.1, SVG Export Plug-In . SVG Version: 6.00 Build 0)  -->
<svg version="1.1" id="Ebene_1" xmlns="http://www.w3.org/2000/svg" xmlns:xlink="http://www.w3.org/1999/xlink" x="0px" y="0px"
	 viewBox="0 0 12 12" style="enable-background:new 0 0 12 12;" xml:space="preserve">
<style type="text/css">
	.st0{fill:#8A7B1B;}
</style>
<path class="st0" d="M0.2,4.9c0,2.5,2,4.5,4.5,4.5c1,0,1.9-0.3,2.6-0.8l0,0l2.8,2.8c0.2,0.2,0.5,0.3,0.7,0.3s0.5-0.1,0.7-0.3
	c0.4-0.4,0.4-1,0-1.4L8.7,7.2c0-0.1-0.1-0.1-0.1-0.1C9,6.5,9.2,5.7,9.2,4.9c0-2.5-2-4.5-4.5-4.5S0.2,2.4,0.2,4.9z M1.2,4.9
	c0-1.9,1.6-3.5,3.5-3.5S8.2,3,8.2,4.9S6.6,8.4,4.7,8.4S1.2,6.8,1.2,4.9z"/>
</svg>
