<svg version="1.1" id="Ebene_1" xmlns="http://www.w3.org/2000/svg" xmlns:xlink="http://www.w3.org/1999/xlink" x="0px" y="0px"
	 viewBox="0 0 50 50" style="enable-background:new 0 0 50 50;" xml:space="preserve">
<style type="text/css">
	.st0{fill:#D5CFA3;}
</style>
<path class="st0" d="M44.2,20.52c0-5.7-4.62-10.33-10.33-10.33c-3.78,0-7.07,2.04-8.87,5.06c-1.8-3.03-5.1-5.06-8.87-5.06
	c-5.7,0-10.33,4.62-10.33,10.33c0,2.71,1.05,5.16,2.75,7.01H8.54l0.03,0.02C9.26,28.29,25,40.69,25,40.69l15.41-12.18
	c0.02-0.01,0.03-0.03,0.05-0.04l0.01-0.01l0,0C42.75,26.58,44.2,23.72,44.2,20.52z"/>
</svg>
